{
    "asset" : {
        "generator" : "Khronos Blender glTF 2.0 I/O",
        "version" : "2.0"
    },
    "scene" : 0,
    "scenes" : [
        {
            "name" : "Scene",
            "nodes" : [
                0,
                1,
                2
            ]
        }
    ],
    "nodes" : [
        {
            "name" : "Light",
            "rotation" : [
                0.16907575726509094,
                0.7558802962303162,
                -0.27217137813568115,
                0.570947527885437
            ],
            "translation" : [
                4.076245307922363,
                6.876635551452637,
                -1.0054539442062378
            ]
        },
        {
            "name" : "Camera",
            "rotation" : [
                0.483536034822464,
                0.33687159419059753,
                -0.20870360732078552,
                0.7804827094078064
            ],
            "translation" : [
                7.358891487121582,
                4.958309173583984,
                6.925790786743164
            ]
        },
        {
            "mesh" : 0,
            "name" : "Cube.001",
            "scale" : [
                0.36207377910614014,
                0.25280332565307617,
                0.36207377910614014
            ],
            "translation" : [
                -1.0999999046325684,
                0,
                0
            ]
        }
    ],
    "materials" : [
        {
            "name" : "Material.006",
            "pbrMetallicRoughness" : {
                "baseColorFactor" : [
                    0.8000000715255737,
                    0.6127198934555054,
                    0.022160038352012634,
                    1
                ],
                "metallicFactor" : 0,
                "roughnessFactor" : 0.5
            }
        },
        {
            "name" : "Material.007",
            "pbrMetallicRoughness" : {
                "baseColorFactor" : [
                    0.8000000715255737,
                    0.42514854669570923,
                    0.04163051024079323,
                    1
                ],
                "metallicFactor" : 0,
                "roughnessFactor" : 0.5
            }
        },
        {
            "name" : "Material.008",
            "pbrMetallicRoughness" : {
                "baseColorFactor" : [
                    0.800000011920929,
                    0.800000011920929,
                    0.800000011920929,
                    1
                ],
                "metallicFactor" : 0,
                "roughnessFactor" : 0.5
            }
        },
        {
            "name" : "Material.009",
            "pbrMetallicRoughness" : {
                "baseColorFactor" : [
                    0,
                    0,
                    0,
                    1
                ],
                "metallicFactor" : 0,
                "roughnessFactor" : 0.5
            }
        }
    ],
    "meshes" : [
        {
            "name" : "Cube.004",
            "primitives" : [
                {
                    "attributes" : {
                        "POSITION" : 0,
                        "NORMAL" : 1,
                        "TEXCOORD_0" : 2
                    },
                    "indices" : 3,
                    "material" : 0
                },
                {
                    "attributes" : {
                        "POSITION" : 4,
                        "NORMAL" : 5,
                        "TEXCOORD_0" : 6
                    },
                    "indices" : 7,
                    "material" : 1
                },
                {
                    "attributes" : {
                        "POSITION" : 8,
                        "NORMAL" : 9,
                        "TEXCOORD_0" : 10
                    },
                    "indices" : 11,
                    "material" : 2
                },
                {
                    "attributes" : {
                        "POSITION" : 12,
                        "NORMAL" : 13,
                        "TEXCOORD_0" : 14
                    },
                    "indices" : 15,
                    "material" : 3
                }
            ]
        }
    ],
    "accessors" : [
        {
            "bufferView" : 0,
            "componentType" : 5126,
            "count" : 102,
            "max" : [
                7.263235569000244,
                3.7428088188171387,
                4.038054943084717
            ],
            "min" : [
                -1,
                -2.2185702323913574,
                -2.7618680000305176
            ],
            "type" : "VEC3"
        },
        {
            "bufferView" : 1,
            "componentType" : 5126,
            "count" : 102,
            "type" : "VEC3"
        },
        {
            "bufferView" : 2,
            "componentType" : 5126,
            "count" : 102,
            "type" : "VEC2"
        },
        {
            "bufferView" : 3,
            "componentType" : 5123,
            "count" : 312,
            "type" : "SCALAR"
        },
        {
            "bufferView" : 4,
            "componentType" : 5126,
            "count" : 22,
            "max" : [
                8.287109375,
                1.727947473526001,
                1
            ],
            "min" : [
                6.287109851837158,
                0.20789384841918945,
                -1
            ],
            "type" : "VEC3"
        },
        {
            "bufferView" : 5,
            "componentType" : 5126,
            "count" : 22,
            "type" : "VEC3"
        },
        {
            "bufferView" : 6,
            "componentType" : 5126,
            "count" : 22,
            "type" : "VEC2"
        },
        {
            "bufferView" : 7,
            "componentType" : 5123,
            "count" : 60,
            "type" : "SCALAR"
        },
        {
            "bufferView" : 8,
            "componentType" : 5126,
            "count" : 6,
            "max" : [
                6.642477989196777,
                2.3588366508483887,
                1.7207504510879517
            ],
            "min" : [
                5.199997901916504,
                0.8193625211715698,
                1.7207504510879517
            ],
            "type" : "VEC3"
        },
        {
            "bufferView" : 9,
            "componentType" : 5126,
            "count" : 6,
            "type" : "VEC3"
        },
        {
            "bufferView" : 10,
            "componentType" : 5126,
            "count" : 6,
            "type" : "VEC2"
        },
        {
            "bufferView" : 11,
            "componentType" : 5123,
            "count" : 12,
            "type" : "SCALAR"
        },
        {
            "bufferView" : 12,
            "componentType" : 5126,
            "count" : 9,
            "max" : [
                6.447417259216309,
                1.9656603336334229,
                1.8535043001174927
            ],
            "min" : [
                6.0269365310668945,
                1.2125389575958252,
                1.8535043001174927
            ],
            "type" : "VEC3"
        },
        {
            "bufferView" : 13,
            "componentType" : 5126,
            "count" : 9,
            "type" : "VEC3"
        },
        {
            "bufferView" : 14,
            "componentType" : 5126,
            "count" : 9,
            "type" : "VEC2"
        },
        {
            "bufferView" : 15,
            "componentType" : 5123,
            "count" : 24,
            "type" : "SCALAR"
        }
    ],
    "bufferViews" : [
        {
            "buffer" : 0,
            "byteLength" : 1224,
            "byteOffset" : 0
        },
        {
            "buffer" : 0,
            "byteLength" : 1224,
            "byteOffset" : 1224
        },
        {
            "buffer" : 0,
            "byteLength" : 816,
            "byteOffset" : 2448
        },
        {
            "buffer" : 0,
            "byteLength" : 624,
            "byteOffset" : 3264
        },
        {
            "buffer" : 0,
            "byteLength" : 264,
            "byteOffset" : 3888
        },
        {
            "buffer" : 0,
            "byteLength" : 264,
            "byteOffset" : 4152
        },
        {
            "buffer" : 0,
            "byteLength" : 176,
            "byteOffset" : 4416
        },
        {
            "buffer" : 0,
            "byteLength" : 120,
            "byteOffset" : 4592
        },
        {
            "buffer" : 0,
            "byteLength" : 72,
            "byteOffset" : 4712
        },
        {
            "buffer" : 0,
            "byteLength" : 72,
            "byteOffset" : 4784
        },
        {
            "buffer" : 0,
            "byteLength" : 48,
            "byteOffset" : 4856
        },
        {
            "buffer" : 0,
            "byteLength" : 24,
            "byteOffset" : 4904
        },
        {
            "buffer" : 0,
            "byteLength" : 108,
            "byteOffset" : 4928
        },
        {
            "buffer" : 0,
            "byteLength" : 108,
            "byteOffset" : 5036
        },
        {
            "buffer" : 0,
            "byteLength" : 72,
            "byteOffset" : 5144
        },
        {
            "buffer" : 0,
            "byteLength" : 48,
            "byteOffset" : 5216
        }
    ],
    "buffers" : [
        {
            "byteLength" : 5264,
            "uri" : "data:application/octet-stream;base64,"
        }
    ]
}
